<svg xmlns="http://www.w3.org/2000/svg" xmlns:xlink="http://www.w3.org/1999/xlink" width="65" height="65" viewBox="0 0 60 60"><defs><filter id="a" x="0" y="0" width="60" height="60" filterUnits="userSpaceOnUse"><feOffset dy="3" input="SourceAlpha"/><feGaussianBlur stdDeviation="3" result="b"/><feFlood flood-opacity="0.161"/><feComposite operator="in" in2="b"/><feComposite in="SourceGraphic"/></filter></defs><g transform="translate(-160 -670)"><g transform="matrix(1, 0, 0, 1, 156, 669)" filter="url(#a)"><circle cx="25" cy="25" r="25" transform="translate(9 6)" fill="#396eff"/></g><path d="M0,0H7a3,3,0,0,1,3,3V7a3,3,0,0,1-3,3H3A3,3,0,0,1,0,7V0A0,0,0,0,1,0,0Z" transform="translate(179 689)" fill="#fff"/><path d="M3,0H7a3,3,0,0,1,3,3V7a3,3,0,0,1-3,3H0a0,0,0,0,1,0,0V3A3,3,0,0,1,3,0Z" transform="translate(179 702)" fill="#fff"/><path d="M3,0h7a0,0,0,0,1,0,0V7a3,3,0,0,1-3,3H3A3,3,0,0,1,0,7V3A3,3,0,0,1,3,0Z" transform="translate(192 689)" fill="#fff"/><path d="M3,0H7a3,3,0,0,1,3,3v7a0,0,0,0,1,0,0H3A3,3,0,0,1,0,7V3A3,3,0,0,1,3,0Z" transform="translate(192 702)" fill="#fff"/></g></svg>